<?xml version="1.0" encoding="utf-8"?>
<?xml-stylesheet type="text/xsl" href="rss1.xsl"?>
<rss version="2.0" xmlns:atom="http://www.w3.org/2005/Atom" xmlns:content="http://purl.org/rss/1.0/modules/content/" xmlns:dc="http://purl.org/dc/elements/1.1/" xmlns:media="http://search.yahoo.com/mrss/">
<channel>
 <title>Getty</title>
 <link>http://www.gettyimg.com/</link>
 <atom:link href="http://www.gettyimg.com/" rel="self" type="application/rss+xml" />

 
                <item>
                <title><![CDATA[【Requests】[REQ AUD] - Tini - Un Mechón de Pelo (live)]]></title>
                <link><![CDATA[https://sharemania.us/threads/tini-un-mech%C3%B3n-de-pelo-live.244149/]]></link>
                <description><![CDATA[<article>
<blockquote class="messageText SelectQuoteContainer ugc baseHtml">
Pls, can someone else get it?<br>
<br>
It's not available in Spain
<div class="messageTextEndMarker">&nbsp;</div>
</blockquote>
</article>]]></description>
                <author><![CDATA[FanMedia]]></author>
                </item>

                
                <item>
                <title><![CDATA[【Cinema Center】MOVIE - Shin.Masked.Rider.2023.1080p.AMZN.WEB-DL.DDP5.1.H.264-Samuel]]></title>
                <link><![CDATA[https://sharemania.us/threads/shin-masked-rider-2023-1080p-amzn-web-dl-ddp5-1-h-264-samuel.244148/]]></link>
                <description><![CDATA[<article>
<blockquote class="messageText SelectQuoteContainer ugc baseHtml">
<div style="text-align: center"><b><span style="font-size: 26px">Shin Masked Rider</span></b><br>
<img src="https://i.imgur.com/HwjOAkK.jpg" class="bbCodeImage LbImage" alt="[​IMG]" data-url="https://i.imgur.com/HwjOAkK.jpg" style=""><br>
<b><a href="https://i.imgur.com/SBh2MJI.jpeg" target="_blank" class="externalLink" rel="nofollow">Alternate Artwork</a></b> | <b><a href="https://i.imgur.com/3NcWqdt.jpeg" target="_blank" class="externalLink" rel="nofollow">Poster 1</a></b> | <b><a href="https://i.imgur.com/xKDYfVv.jpg" target="_blank" class="externalLink" rel="nofollow">Poster 2</a></b> | <b><a href="https://i.imgur.com/V4mTBzm.jpeg" target="_blank" class="externalLink" rel="nofollow">Thumbnail</a></b> | <b><a href="https://i.imgur.com/3rJVg5p.jpeg" target="_blank" class="externalLink" rel="nofollow">Key Art</a></b><br>
<br>
2,028 • IMDb 6.1 • 2 h 1 min • 2023 <img src="https://i.imgur.com/BgPoepX.png" class="bbCodeImage LbImage" alt="[​IMG]" data-url="https://i.imgur.com/BgPoepX.png" style=""> <img src="https://i.imgur.com/sh55tai.png" class="bbCodeImage LbImage" alt="[​IMG]" data-url="https://i.imgur.com/sh55tai.png" style=""> <img src="https://i.imgur.com/zjBlkb0.png" class="bbCodeImage LbImage" alt="[​IMG]" data-url="https://i.imgur.com/zjBlkb0.png" style=""><br>
<br>
<div class="bbCodeBlock bbCodeQuote">
<aside>
<blockquote class="quoteContainer"><div class="quote"><b><span style="font-size: 15px"><span style="font-family: 'Arial'">Description</span></span></b><br>
A man forced to bear power and stripped of humanity. A woman skeptical of happiness. Takeshi Hongo, an Augmentation made by SHOCKER, and Ruriko Midorikawa, a rebel of the organization, escape while fighting off assassins. What’s justice? What’s evil? Will this violence end? Despite his power, Hongo tries to remain human. Along with freedom, Ruriko has regained a heart. What paths will they choose?</div><div class="quoteExpand">Click to expand...</div></blockquote>
</aside>
</div>
<div class="bbCodeBlock bbCodeQuote">
<aside>
<blockquote class="quoteContainer"><div class="quote"><span style="font-family: 'Arial'"><span style="font-size: 15px"><b>Trailers</b></span></span><br>
<span data-s9e-mediaembed="googledrive" style="display:inline-block;width:100%;max-width:640px"><span style="display:block;overflow:hidden;position:relative;padding-bottom:75%"><iframe allowfullscreen="" loading="lazy" scrolling="no" src="//drive.google.com/file/d/13UC4GTae5XW6sMmBeYlAailCVJeqg5z0/preview" style="border:0;height:100%;left:0;position:absolute;width:100%"></iframe></span></span></div><div class="quoteExpand quoteCut">Click to expand...</div></blockquote>
</aside>
</div>
<div class="bbCodeBlock bbCodeQuote">
<aside>
<blockquote class="quoteContainer"><div class="quote"><span style="font-family: 'Arial'"><span style="font-size: 15px"><b>Details</b></span></span><br>
<b>Genres:</b> Science Fiction • Drama • Fantasy • Adventure</div><div class="quoteExpand">Click to expand...</div></blockquote>
</aside>
</div>
<div class="bbCodeBlock bbCodeQuote">
<aside>
<blockquote class="quoteContainer"><div class="quote"><b><span style="font-size: 15px"><span style="font-family: 'Arial'">More Details</span></span></b><br>
<b>Content advisory:</b> Violence, foul language<br>
<b>Audio languages:</b> 日本語, ไทย<br>
<b>Subtitles:</b> English, 日本語 [CC], العربية, Deutsch, Español (Latinoamérica), Español (España), Filipino, Français, Indonesia, Italiano, 한국어, Bahasa Melayu, Português, ไทย, Tiếng Việt, 中文（繁體）<br>
<b>Directors:</b> Hideaki Anno<br>
<b>Producers:</b> Koide Daiju, Masanori Kawashima, Muneyuki Kii, Tôru Mori, Shinichirô Shirakura, Kazutoshi Wadakura<br>
<b>Starring:</b> Sosuke Ikematsu, Minami Hamabe, Tasuku Emoto<br>
<b>Studio:</b> Toei</div><div class="quoteExpand quoteCut">Click to expand...</div></blockquote>
</aside>
</div>
<div class="bbCodeBlock bbCodeQuote">
<aside>
<blockquote class="quoteContainer"><div class="quote"><b><span style="font-size: 15px"><span style="font-family: 'Arial'">Source</span></span></b><br>
<img src="https://i.imgur.com/UquWuUD.png" class="bbCodeImage LbImage" alt="[​IMG]" data-url="https://i.imgur.com/UquWuUD.png" style=""></div><div class="quoteExpand">Click to expand...</div></blockquote>
</aside>
</div>
<div class="bbCodeBlock bbCodeQuote">
<aside>
<blockquote class="quoteContainer"><div class="quote"><b><span style="font-size: 15px">Release Name</span></b><br>
Shin.Masked.Rider.2023.1080p.AMZN.WEB-DL.DDP5.1.H.264-Samuel</div><div class="quoteExpand">Click to expand...</div></blockquote>
</aside>
</div>
<div class="ToggleTriggerAnchor bbCodeSpoilerContainer">
<button type="button" class="button bbCodeSpoilerButton ToggleTrigger Tooltip JsOnly" data-target="> .SpoilerTarget"><span>Spoiler: <span class="SpoilerTitle">Media Information</span></span></button>
<div class="SpoilerTarget bbCodeSpoilerText">General<br>
Complete name : Shin.Masked.Rider.2023.1080p.AMZN.WEB-DL.DDP5.1.H.264-Samuel.mkv<br>
Format : Matroska<br>
Format version : Version 4<br>
File size : 7.01 GiB<br>
Duration : 2 h 1 min<br>
Overall bit rate : 8 274 kb/s<br>
Frame rate : 23.976 FPS<br>
Encoded date : 2024-05-10 23:47:54 UTC<br>
Writing application : mkvmerge v84.0 ('Sleeper') 64-bit<br>
Writing library : libebml v1.4.5 + libmatroska v1.7.1<br>
<br>
Video<br>
ID : 1<br>
Format : AVC<br>
Format/Info : Advanced Video Codec<br>
Format profile : High@L4<br>
Format settings : CABAC / 4 Ref Frames<br>
Format settings, CABAC : Yes<br>
Format settings, Reference frames : 4 frames<br>
Codec ID : V_MPEG4/ISO/AVC<br>
Duration : 2 h 1 min<br>
Bit rate mode : Constant<br>
Bit rate : 6 990 kb/s<br>
Nominal bit rate : 10 000 kb/s<br>
Width : 1 920 pixels<br>
Height : 800 pixels<br>
Display aspect ratio : 2.40:1<br>
Frame rate mode : Constant<br>
Frame rate : 23.976 (24000/1001) FPS<br>
Color space : YUV<br>
Chroma subsampling : 4:2:0<br>
Bit depth : 8 bits<br>
Scan type : Progressive<br>
Bits/(Pixel*Frame) : 0.190<br>
Stream size : 5.92 GiB (84%)<br>
Default : Yes<br>
Forced : No<br>
Color range : Limited<br>
Color primaries : BT.709<br>
Transfer characteristics : BT.709<br>
Matrix coefficients : BT.709<br>
<br>
Audio #1<br>
ID : 2<br>
Format : E-AC-3<br>
Format/Info : Enhanced AC-3<br>
Commercial name : Dolby Digital Plus<br>
Codec ID : A_EAC3<br>
Duration : 2 h 1 min<br>
Bit rate mode : Constant<br>
Bit rate : 640 kb/s<br>
Channel(s) : 6 channels<br>
Channel layout : L R C LFE Ls Rs<br>
Sampling rate : 48.0 kHz<br>
Frame rate : 31.250 FPS (1536 SPF)<br>
Compression mode : Lossy<br>
Stream size : 556 MiB (8%)<br>
Language : Japanese<br>
Service kind : Complete Main<br>
Default : Yes<br>
Forced : No<br>
Dialog Normalization : -31 dB<br>
compr : -0.28 dB<br>
dialnorm_Average : -31 dB<br>
dialnorm_Minimum : -31 dB<br>
dialnorm_Maximum : -31 dB<br>
<br>
Audio #2<br>
ID : 3<br>
Format : E-AC-3<br>
Format/Info : Enhanced AC-3<br>
Commercial name : Dolby Digital Plus<br>
Codec ID : A_EAC3<br>
Duration : 2 h 1 min<br>
Bit rate mode : Constant<br>
Bit rate : 640 kb/s<br>
Channel(s) : 6 channels<br>
Channel layout : L R C LFE Ls Rs<br>
Sampling rate : 48.0 kHz<br>
Frame rate : 31.250 FPS (1536 SPF)<br>
Compression mode : Lossy<br>
Stream size : 556 MiB (8%)<br>
Language : Thai<br>
Service kind : Complete Main<br>
Default : No<br>
Forced : No<br>
Dialog Normalization : -31 dB<br>
compr : -0.28 dB<br>
dialnorm_Average : -31 dB<br>
dialnorm_Minimum : -31 dB<br>
dialnorm_Maximum : -31 dB<br>
<br>
Text #1<br>
ID : 4<br>
Format : UTF-8<br>
Codec ID : S_TEXT/UTF8<br>
Codec ID/Info : UTF-8 Plain Text<br>
Duration : 2 h 0 min<br>
Bit rate : 44 b/s<br>
Frame rate : 0.184 FPS<br>
Count of elements : 1330<br>
Stream size : 39.0 KiB (0%)<br>
Language : English<br>
Default : No<br>
Forced : No<br>
<br>
Text #2<br>
ID : 5<br>
Format : UTF-8<br>
Codec ID : S_TEXT/UTF8<br>
Codec ID/Info : UTF-8 Plain Text<br>
Duration : 2 h 0 min<br>
Bit rate : 62 b/s<br>
Frame rate : 0.177 FPS<br>
Count of elements : 1275<br>
Stream size : 55.2 KiB (0%)<br>
Title : Saudi Arabia<br>
Language : Arabic<br>
Default : No<br>
Forced : No<br>
<br>
Text #3<br>
ID : 6<br>
Format : UTF-8<br>
Codec ID : S_TEXT/UTF8<br>
Codec ID/Info : UTF-8 Plain Text<br>
Duration : 2 h 0 min<br>
Bit rate : 48 b/s<br>
Frame rate : 0.177 FPS<br>
Count of elements : 1275<br>
Stream size : 43.0 KiB (0%)<br>
Language : German<br>
Default : No<br>
Forced : No<br>
<br>
Text #4<br>
ID : 7<br>
Format : UTF-8<br>
Codec ID : S_TEXT/UTF8<br>
Codec ID/Info : UTF-8 Plain Text<br>
Duration : 2 h 0 min<br>
Bit rate : 47 b/s<br>
Frame rate : 0.179 FPS<br>
Count of elements : 1289<br>
Stream size : 41.5 KiB (0%)<br>
Title : Latin American<br>
Language : Spanish<br>
Default : No<br>
Forced : No<br>
<br>
Text #5<br>
ID : 8<br>
Format : UTF-8<br>
Codec ID : S_TEXT/UTF8<br>
Codec ID/Info : UTF-8 Plain Text<br>
Duration : 2 h 0 min<br>
Bit rate : 49 b/s<br>
Frame rate : 0.177 FPS<br>
Count of elements : 1274<br>
Stream size : 43.3 KiB (0%)<br>
Language : Filipino<br>
Default : No<br>
Forced : No<br>
<br>
Text #6<br>
ID : 9<br>
Format : UTF-8<br>
Codec ID : S_TEXT/UTF8<br>
Codec ID/Info : UTF-8 Plain Text<br>
Duration : 2 h 0 min<br>
Bit rate : 43 b/s<br>
Frame rate : 0.177 FPS<br>
Count of elements : 1274<br>
Stream size : 38.2 KiB (0%)<br>
Title : European<br>
Language : French<br>
Default : No<br>
Forced : No<br>
<br>
Text #7<br>
ID : 10<br>
Format : UTF-8<br>
Codec ID : S_TEXT/UTF8<br>
Codec ID/Info : UTF-8 Plain Text<br>
Duration : 2 h 0 min<br>
Bit rate : 46 b/s<br>
Frame rate : 0.177 FPS<br>
Count of elements : 1273<br>
Stream size : 40.6 KiB (0%)<br>
Language : Indonesian<br>
Default : No<br>
Forced : No<br>
<br>
Text #8<br>
ID : 11<br>
Format : UTF-8<br>
Codec ID : S_TEXT/UTF8<br>
Codec ID/Info : UTF-8 Plain Text<br>
Duration : 2 h 0 min<br>
Bit rate : 42 b/s<br>
Frame rate : 0.177 FPS<br>
Count of elements : 1273<br>
Stream size : 37.1 KiB (0%)<br>
Language : Italian<br>
Default : No<br>
Forced : No<br>
<br>
Text #9<br>
ID : 12<br>
Format : UTF-8<br>
Codec ID : S_TEXT/UTF8<br>
Codec ID/Info : UTF-8 Plain Text<br>
Duration : 2 h 0 min<br>
Bit rate : 64 b/s<br>
Frame rate : 0.218 FPS<br>
Count of elements : 1579<br>
Stream size : 57.1 KiB (0%)<br>
Title : SDH<br>
Language : Japanese<br>
Default : No<br>
Forced : No<br>
<br>
Text #10<br>
ID : 13<br>
Format : UTF-8<br>
Codec ID : S_TEXT/UTF8<br>
Codec ID/Info : UTF-8 Plain Text<br>
Duration : 2 h 0 min<br>
Bit rate : 48 b/s<br>
Frame rate : 0.180 FPS<br>
Count of elements : 1294<br>
Stream size : 42.7 KiB (0%)<br>
Language : Korean<br>
Default : No<br>
Forced : No<br>
<br>
Text #11<br>
ID : 14<br>
Format : UTF-8<br>
Codec ID : S_TEXT/UTF8<br>
Codec ID/Info : UTF-8 Plain Text<br>
Duration : 2 h 0 min<br>
Bit rate : 44 b/s<br>
Frame rate : 0.177 FPS<br>
Count of elements : 1275<br>
Stream size : 39.4 KiB (0%)<br>
Language : Malay<br>
Default : No<br>
Forced : No<br>
<br>
Text #12<br>
ID : 15<br>
Format : UTF-8<br>
Codec ID : S_TEXT/UTF8<br>
Codec ID/Info : UTF-8 Plain Text<br>
Duration : 2 h 0 min<br>
Bit rate : 45 b/s<br>
Frame rate : 0.177 FPS<br>
Count of elements : 1275<br>
Stream size : 40.0 KiB (0%)<br>
Title : Brazilian<br>
Language : Portuguese<br>
Default : No<br>
Forced : No<br>
<br>
Text #13<br>
ID : 16<br>
Format : UTF-8<br>
Codec ID : S_TEXT/UTF8<br>
Codec ID/Info : UTF-8 Plain Text<br>
Duration : 2 h 0 min<br>
Bit rate : 125 b/s<br>
Frame rate : 0.188 FPS<br>
Count of elements : 1354<br>
Stream size : 110 KiB (0%)<br>
Language : Thai<br>
Default : No<br>
Forced : No<br>
<br>
Text #14<br>
ID : 17<br>
Format : UTF-8<br>
Codec ID : S_TEXT/UTF8<br>
Codec ID/Info : UTF-8 Plain Text<br>
Duration : 2 h 0 min<br>
Bit rate : 61 b/s<br>
Frame rate : 0.177 FPS<br>
Count of elements : 1277<br>
Stream size : 53.7 KiB (0%)<br>
Title : Vietnam<br>
Language : Vietnamese<br>
Default : No<br>
Forced : No<br>
<br>
Text #15<br>
ID : 18<br>
Format : UTF-8<br>
Codec ID : S_TEXT/UTF8<br>
Codec ID/Info : UTF-8 Plain Text<br>
Duration : 2 h 0 min<br>
Bit rate : 41 b/s<br>
Frame rate : 0.177 FPS<br>
Count of elements : 1275<br>
Stream size : 36.4 KiB (0%)<br>
Title : Traditional<br>
Language : Chinese<br>
Default : No<br>
Forced : No</div>
</div><br>
<b>Screenshots</b><br>
<img src="https://i.imgur.com/iyCCTOM.png" class="bbCodeImage LbImage" alt="[​IMG]" data-url="https://i.imgur.com/iyCCTOM.png" style=""><br>
<br>
<b>Download</b><br>
<div class="bbCodeBlock bbCodeVfcHH HiddenContent">
<div class="attribution type">Hidden Content:</div>
<blockquote>You must reply before you can see the hidden data contained here.</blockquote>
</div></div>
<div class="messageTextEndMarker">&nbsp;</div>
</blockquote>
</article>]]></description>
                <author><![CDATA[Samuel]]></author>
                </item>

                
                <item>
                <title><![CDATA[【Requests】[REQ AUD] - Vendredi sur Mer - Premiers émois [24bit]]]></title>
                <link><![CDATA[https://sharemania.us/threads/vendredi-sur-mer-premiers-%C3%A9mois-24bit.244146/]]></link>
                <description><![CDATA[<article>
<blockquote class="messageText SelectQuoteContainer ugc baseHtml">
Hello. Highest quality, please <img src="styles/default/xenforo/smilies/big_smile-48.png" class="mceSmilie" alt=":)" title="Smile    :)"><br>
Qobuz:<br>
<a href="https://www.qobuz.com/album/premiers-emois-vendredi-sur-mer/xvwob4auqkgpb" target="_blank" class="externalLink" rel="nofollow">https://www.qobuz.com/album/premiers-emois-vendredi-sur-mer/xvwob4auqkgpb</a>
<div class="messageTextEndMarker">&nbsp;</div>
</blockquote>
</article>]]></description>
                <author><![CDATA[Melanie_98]]></author>
                </item>

                </channel></rss>